<?xml version="1.0" encoding="utf-8"?>
<!-- Generator: Adobe Illustrator 22.0.1, SVG Export Plug-In . SVG Version: 6.00 Build 0)  -->
<svg version="1.1" id="Í_xBC__xB2_ã_x5F_1" xmlns="http://www.w3.org/2000/svg" xmlns:xlink="http://www.w3.org/1999/xlink"
	 x="0px" y="0px" viewBox="0 0 66 57.1" style="enable-background:new 0 0 66 57.1;" xml:space="preserve">
<style type="text/css">
	.st0{fill:#FFFFFF;stroke:#FFFFFF;stroke-miterlimit:10;}
</style>
<g>
	<path class="st0" d="M7.4,26.3h51.2c3.6,0,4.8-1.4,5.2-2.6c0.4-1.2,0.2-3-2.6-5.2L40,2.7c-1.9-1.4-4.3-2.2-6.9-2.2
		c-2.6,0-5.1,0.8-6.9,2.2L4.8,18.5c-2.9,2.2-3,4-2.6,5.2C2.6,24.9,3.8,26.3,7.4,26.3z M7.1,21.6L28.3,5.7c1.2-0.9,2.9-1.4,4.7-1.4
		c1.8,0,3.5,0.5,4.7,1.4l21.2,15.9c0.4,0.3,0.7,0.6,0.9,0.8c-0.3,0.1-0.7,0.1-1.2,0.1H7.4c-0.5,0-0.9,0-1.2-0.1
		C6.4,22.2,6.6,21.9,7.1,21.6z"/>
	<rect x="31.4" y="52.8" class="st0" width="3.3" height="0"/>
	<rect x="39" y="52.8" class="st0" width="8.6" height="0"/>
	<rect x="18.5" y="52.8" class="st0" width="8.6" height="0"/>
	<rect x="51.9" y="52.8" class="st0" width="3.3" height="0"/>
	<rect x="10.8" y="52.8" class="st0" width="3.3" height="0"/>
	<rect x="24.3" y="27" class="st0" width="3.8" height="25.8"/>
	<rect x="37.9" y="27.3" class="st0" width="3.8" height="25.8"/>
	<rect x="11.7" y="27" class="st0" width="3.8" height="25.8"/>
	<path class="st0" d="M63.3,52.8h-3.9v0h-4.3v0h-3.3v0h-4.3v0H39v0h-4.3v0h-3.3v0H27v0h-8.6v0h-4.3v0h-3.3v0H6.5v0H2.7
		c-1.2,0-2.2,0.9-2.2,1.9c0,1,1,1.9,2.2,1.9h60.7c1.2,0,2.2-0.9,2.2-1.9C65.5,53.6,64.5,52.8,63.3,52.8z"/>
	<rect x="50.5" y="27" class="st0" width="3.8" height="25.8"/>
</g>
</svg>
