<?xml version="1.0" encoding="utf-8"?>
<!-- Generator: Adobe Illustrator 25.0.0, SVG Export Plug-In . SVG Version: 6.00 Build 0)  -->
<svg version="1.1" id="Layer_1" xmlns="http://www.w3.org/2000/svg" xmlns:xlink="http://www.w3.org/1999/xlink" x="0px" y="0px"
	 viewBox="0 0 200 32.8" style="enable-background:new 0 0 200 32.8;" xml:space="preserve">
<style type="text/css">
	.st0{fill:#DBE4EA;}
	.st1{fill-rule:evenodd;clip-rule:evenodd;fill:#DBE4EA;}
</style>
<g>
	<path class="st0" d="M112.4,2.1c0.2,0.1,0.3,0.4,0.3,0.7s-0.1,0.5-0.4,0.8c-0.2,0.2-0.5,0.3-0.9,0.3s-0.8-0.1-1-0.4
		s-0.3-0.6-0.3-0.8h0.5c0,0.2,0.1,0.4,0.2,0.6c0.1,0.2,0.3,0.2,0.6,0.2c0.3,0,0.4-0.1,0.6-0.2c0.1-0.1,0.2-0.3,0.2-0.4
		c0-0.2-0.1-0.3-0.2-0.4c-0.1-0.1-0.3-0.2-0.4-0.2c-0.3-0.1-0.5-0.2-0.8-0.4c-0.3-0.1-0.5-0.4-0.5-0.7s0.1-0.5,0.4-0.8
		c0.2-0.2,0.5-0.3,0.9-0.3s0.6,0.1,0.9,0.3c0.2,0.2,0.3,0.5,0.4,0.8h-0.5c0-0.1-0.1-0.2-0.2-0.4s-0.3-0.2-0.5-0.2s-0.4,0.1-0.5,0.2
		S111,1.1,111,1.2c0,0.2,0.1,0.3,0.4,0.4s0.5,0.2,0.7,0.3C112,1.9,112.2,2,112.4,2.1z"/>
	<path class="st0" d="M113.6,3.8V0.1h0.5v3.7H113.6z"/>
	<path class="st0" d="M117.2,3.8L115.5,1v2.8H115V0.1h0.6l1.8,2.8V0.1h0.5v3.7H117.2z"/>
	<path class="st0" d="M121.8,1.2c-0.1-0.1-0.2-0.3-0.4-0.5c-0.2-0.2-0.5-0.3-0.8-0.3c-0.4,0-0.8,0.1-1,0.4c-0.3,0.3-0.4,0.6-0.4,1
		s0.1,0.7,0.4,1s0.6,0.4,1,0.4s0.6-0.1,0.9-0.3c0.2-0.2,0.3-0.3,0.4-0.5h0.5c-0.1,0.3-0.4,0.6-0.7,0.9c-0.3,0.2-0.7,0.4-1.1,0.4
		c-0.5,0-1-0.2-1.4-0.6s-0.6-0.8-0.6-1.4c0-0.5,0.2-1,0.6-1.4s0.8-0.6,1.4-0.6c0.4,0,0.8,0.1,1.1,0.4c0.3,0.2,0.5,0.5,0.7,0.9
		L121.8,1.2z"/>
	<path class="st0" d="M123.1,3.8V0.1h2.4v0.5h-1.9v1.1h1.8v0.5h-1.8v1.2h1.9v0.5h-2.4V3.8z"/>
	<g>
		<path class="st0" d="M134.4,0.9c0.2,0.1,0.2,0.3,0.2,0.5s-0.1,0.3-0.2,0.5c-0.1,0.2-0.3,0.4-0.5,0.7l-0.5,0.6l0,0h1h0.5l0,0
			l-0.1,0.5h-0.7h-1.4h-0.2l0,0V3.3l0.8-0.9c0.2-0.2,0.4-0.4,0.5-0.6s0.1-0.3,0.1-0.4c0-0.1,0-0.2-0.1-0.2s-0.2-0.1-0.3-0.1
			s-0.3,0-0.4,0.1c-0.1,0.1-0.3,0.2-0.4,0.3h-0.1L132.5,1c0.4-0.3,0.7-0.4,1.1-0.4C134.1,0.7,134.3,0.7,134.4,0.9z"/>
		<path class="st0" d="M137.7,1c0.2,0.3,0.3,0.6,0.3,1.1s-0.1,0.9-0.4,1.2c-0.2,0.3-0.6,0.4-1,0.4s-0.7-0.1-0.9-0.4
			s-0.3-0.6-0.3-1.1s0.1-0.9,0.4-1.2c0.2-0.3,0.6-0.4,1-0.4C137.2,0.7,137.5,0.8,137.7,1z M135.9,2.2c0,0.7,0.3,1,0.8,1
			c0.3,0,0.5-0.1,0.6-0.2c0.1-0.2,0.2-0.4,0.2-0.7s-0.1-0.6-0.2-0.8c-0.1-0.2-0.4-0.3-0.6-0.3C136.2,1.2,135.9,1.5,135.9,2.2z"/>
		<path class="st0" d="M140.4,0.9c0.2,0.1,0.2,0.3,0.2,0.5s-0.1,0.3-0.2,0.5c-0.1,0.2-0.3,0.4-0.5,0.7l-0.5,0.6l0,0h1h0.5l0,0
			l-0.1,0.5h-0.7h-1.4h-0.2l0,0V3.3l0.8-0.9c0.2-0.2,0.4-0.4,0.5-0.6s0.1-0.3,0.1-0.4c0-0.1,0-0.2-0.1-0.2s-0.2-0.1-0.3-0.1
			s-0.3,0-0.4,0.1c-0.1,0.1-0.3,0.2-0.4,0.3h-0.1L138.5,1c0.4-0.3,0.7-0.4,1.1-0.4C140,0.7,140.2,0.7,140.4,0.9z"/>
		<path class="st0" d="M143.7,1c0.2,0.3,0.3,0.6,0.3,1.1s-0.1,0.9-0.4,1.2c-0.2,0.3-0.6,0.4-1,0.4s-0.7-0.1-0.9-0.4
			s-0.3-0.6-0.3-1.1s0.1-0.9,0.4-1.2c0.2-0.3,0.6-0.4,1-0.4C143.1,0.7,143.4,0.8,143.7,1z M141.8,2.2c0,0.7,0.3,1,0.8,1
			c0.3,0,0.5-0.1,0.6-0.2c0.1-0.2,0.2-0.4,0.2-0.7s-0.1-0.6-0.2-0.8c-0.1-0.2-0.4-0.3-0.6-0.3C142.1,1.2,141.8,1.5,141.8,2.2z"/>
	</g>
	<g>
		<path class="st0" d="M38.7,30.8v-0.1c0.4,0,0.7,0,0.7-0.3V27c0-0.3-0.1-0.3-0.5-0.3c-0.8,0-1.1,0.5-1.3,0.9h-0.1l0.3-1h3.6l0.4,1
			h-0.1c-0.3-0.5-0.5-0.9-1.2-0.9c-0.4,0-0.6,0.1-0.6,0.3v3.3c0,0.3,0.2,0.3,0.7,0.3v0.1h-1.9V30.8z"/>
		<path class="st0" d="M42.7,29.3c0,1,0.5,1.4,1.1,1.4c0.5,0,0.8-0.2,1.1-0.6l0.1,0.1c-0.3,0.4-0.6,0.7-1.3,0.7
			c-0.8,0-1.4-0.6-1.4-1.5c0-0.8,0.5-1.5,1.4-1.5c0.8,0,1.3,0.5,1.3,1.4H42.7z M44.6,29.1c0-0.8-0.4-1.1-0.9-1.1s-0.9,0.5-1,1.1
			H44.6z"/>
		<path class="st0" d="M48.5,30.6c-0.1,0.2-0.2,0.3-0.5,0.3s-0.3-0.2-0.3-0.4c-0.3,0.2-0.5,0.4-1,0.4c-0.6,0-0.8-0.3-0.8-0.7
			c0-0.5,0.6-0.9,1.9-1.1v-0.4c0-0.4-0.2-0.6-0.5-0.6c-0.5,0-0.6,0.1-0.7,0.4c0,0.1-0.1,0.3-0.3,0.3s-0.2-0.1-0.2-0.3
			c0-0.3,0.5-0.6,1.3-0.6c0.5,0,0.9,0.3,0.9,0.8v1.7C48.3,30.6,48.3,30.7,48.5,30.6C48.3,30.7,48.3,30.7,48.5,30.6L48.5,30.6z
			 M47.7,29.2c-0.8,0.1-1.5,0.4-1.5,1c0,0.3,0.2,0.5,0.6,0.5c0.4,0,0.7-0.1,0.9-0.3V29.2z"/>
		<path class="st0" d="M49,30.8v-0.1c0.3,0,0.4-0.1,0.4-0.3v-1.8c0-0.3-0.1-0.3-0.4-0.3v-0.1l0.8-0.2v0.5c0.2-0.2,0.6-0.5,1.1-0.5
			c0.3,0,0.6,0.2,0.7,0.5c0.3-0.3,0.6-0.5,1.1-0.5c0.4,0,0.7,0.3,0.7,0.7v1.8c0,0.2,0.1,0.3,0.4,0.3v0.1h-1.2v-0.1
			c0.3,0,0.4-0.1,0.4-0.3v-1.7c0-0.2-0.2-0.5-0.5-0.5s-0.6,0.2-0.9,0.4v1.7c0,0.2,0.1,0.3,0.4,0.3v0.1h-1.2v-0.1
			c0.3,0,0.4-0.1,0.4-0.3v-1.7c0-0.3-0.2-0.5-0.5-0.5c-0.4,0-0.6,0.2-0.9,0.5v1.7c0,0.2,0.1,0.3,0.4,0.3v0.1H49z"/>
		<path class="st0" d="M56.2,30.8v-0.2c0.4,0,0.6-0.1,0.6-0.4V27c0-0.3-0.2-0.4-0.6-0.4v-0.1h3.1l0.4,1l-0.1,0.1
			c-0.3-0.4-0.5-0.9-1.5-0.9h-0.6c-0.3,0-0.5,0.1-0.5,0.4v1.4h1c0.4,0,0.6-0.2,0.6-0.7h0.1v1.7h-0.1c0-0.5-0.2-0.8-0.6-0.8h-0.9v1.6
			c0,0.3,0.2,0.4,0.5,0.4h0.6c0.7,0,1.1-0.3,1.6-1h0.1l-0.4,1.1C59.5,30.8,56.2,30.8,56.2,30.8z"/>
		<path class="st0" d="M60.5,30.8v-0.2c0.3,0,0.4-0.1,0.4-0.4V27c0-0.2-0.1-0.3-0.4-0.3v-0.1l0.8-0.3v3.8c0,0.3,0.1,0.4,0.4,0.4v0.2
			h-1.2V30.8z"/>
		<path class="st0" d="M62.3,30.8v-0.2c0.3,0,0.4-0.1,0.4-0.3v-1.8c0-0.2-0.1-0.3-0.4-0.3v-0.1l0.8-0.3v2.5c0,0.2,0.1,0.3,0.4,0.3
			v0.2C63.5,30.8,62.3,30.8,62.3,30.8z M63.2,26.7c0,0.1-0.1,0.3-0.3,0.3s-0.3-0.2-0.3-0.3c0-0.2,0.1-0.3,0.3-0.3
			C63,26.4,63.2,26.5,63.2,26.7z"/>
		<path class="st0" d="M63.9,28.1V28c0.4,0,0.7-0.3,0.7-1h0.1v1h0.8v0.2h-0.8v2.2c0,0.2,0.1,0.3,0.4,0.3c0.2,0,0.4-0.1,0.5-0.3
			l0.1,0.1c-0.2,0.4-0.4,0.5-0.8,0.5c-0.3,0-0.6-0.2-0.6-0.7v-2.1h-0.4V28.1z"/>
		<path class="st0" d="M66.7,29.3c0,1,0.5,1.4,1.1,1.4c0.5,0,0.8-0.2,1.1-0.6l0.1,0.1c-0.3,0.4-0.6,0.7-1.3,0.7
			c-0.8,0-1.4-0.6-1.4-1.5c0-0.8,0.5-1.5,1.4-1.5c0.8,0,1.3,0.5,1.3,1.4H66.7z M68.6,29.1c0-0.8-0.4-1.1-0.9-1.1s-0.9,0.5-1,1.1
			H68.6z"/>
		<path class="st0" d="M72.2,28.4h3.5v0.3h-3.5V28.4z"/>
		<path class="st0" d="M80.9,26.4l1.5,3.8c0.1,0.3,0.3,0.4,0.6,0.4v0.2h-1.5v-0.2c0.4,0,0.6,0,0.6-0.2c0,0,0-0.1,0-0.2l-0.4-1h-1.8
			l-0.3,0.9c0,0.1-0.1,0.2-0.1,0.3c0,0.2,0.2,0.3,0.6,0.3v0.2h-1.3v-0.2c0.3,0,0.4-0.1,0.6-0.6l1.3-3.5L80.9,26.4z M80.7,26.8
			l-0.8,2.3h1.7L80.7,26.8z"/>
		<path class="st0" d="M86.1,30.1c-0.3,0.4-0.6,0.7-1.2,0.7c-0.7,0-1.3-0.6-1.3-1.4c0-1,0.7-1.6,1.5-1.6c0.4,0,1,0.2,1,0.6
			c0,0.1-0.1,0.2-0.2,0.2c-0.2,0-0.2-0.2-0.3-0.3c-0.1-0.2-0.2-0.4-0.6-0.4c-0.5,0-0.9,0.5-0.9,1.3s0.4,1.3,1,1.3
			C85.4,30.7,85.6,30.5,86.1,30.1L86.1,30.1z"/>
		<path class="st0" d="M89.5,30.6c-0.1,0.2-0.2,0.3-0.5,0.3s-0.3-0.2-0.3-0.4c-0.3,0.2-0.5,0.4-1,0.4c-0.6,0-0.8-0.3-0.8-0.7
			c0-0.5,0.6-0.9,1.9-1.1v-0.4c0-0.4-0.2-0.6-0.5-0.6c-0.5,0-0.6,0.1-0.7,0.4c0,0.1-0.1,0.3-0.3,0.3c-0.2,0-0.2-0.1-0.2-0.3
			c0-0.3,0.5-0.6,1.3-0.6c0.5,0,0.9,0.3,0.9,0.8v1.7C89.3,30.6,89.3,30.7,89.5,30.6C89.2,30.7,89.3,30.7,89.5,30.6L89.5,30.6z
			 M88.7,29.2c-0.8,0.1-1.5,0.4-1.5,1c0,0.3,0.2,0.5,0.6,0.5s0.7-0.1,0.9-0.3V29.2z"/>
		<path class="st0" d="M92.9,30.8c-0.3,0-0.5,0-0.8,0.1v-0.3c-0.1,0.2-0.4,0.3-0.9,0.3c-0.9,0-1.3-0.7-1.3-1.5s0.4-1.5,1.3-1.5
			c0.5,0,0.7,0.2,0.9,0.3v-1.1c0-0.2-0.1-0.3-0.5-0.3v-0.1l0.9-0.3v3.8c0,0.3,0.1,0.4,0.4,0.4V30.8z M92.2,28.4
			c-0.2-0.2-0.4-0.3-0.7-0.3c-0.7,0-1,0.6-1,1.3c0,0.7,0.3,1.3,1,1.3c0.5,0,0.6-0.2,0.7-0.3V28.4z"/>
		<path class="st0" d="M93.9,29.3c0,1,0.5,1.4,1.1,1.4c0.5,0,0.8-0.2,1.1-0.6l0.1,0.1c-0.3,0.4-0.6,0.7-1.3,0.7
			c-0.8,0-1.4-0.6-1.4-1.5c0-0.8,0.5-1.5,1.4-1.5c0.8,0,1.3,0.5,1.3,1.4H93.9z M95.8,29.1c0-0.8-0.4-1.1-0.9-1.1s-0.9,0.5-1,1.1
			H95.8z"/>
		<path class="st0" d="M96.9,30.8v-0.1c0.3,0,0.4-0.1,0.4-0.3v-1.8c0-0.3-0.1-0.3-0.4-0.3v-0.1l0.8-0.2v0.5c0.2-0.2,0.6-0.5,1.1-0.5
			c0.3,0,0.6,0.2,0.7,0.5c0.3-0.3,0.6-0.5,1.1-0.5c0.4,0,0.7,0.3,0.7,0.7v1.8c0,0.2,0.1,0.3,0.4,0.3v0.1h-1.2v-0.1
			c0.3,0,0.4-0.1,0.4-0.3v-1.7c0-0.2-0.2-0.5-0.5-0.5s-0.6,0.2-0.9,0.4v1.7c0,0.2,0.1,0.3,0.4,0.3v0.1h-1.2v-0.1
			c0.3,0,0.4-0.1,0.4-0.3v-1.7c0-0.3-0.2-0.5-0.5-0.5c-0.4,0-0.6,0.2-0.9,0.5v1.7c0,0.2,0.1,0.3,0.4,0.3v0.1H96.9z"/>
		<path class="st0" d="M102.2,30.8v-0.2c0.3,0,0.4-0.1,0.4-0.3v-1.8c0-0.2-0.1-0.3-0.4-0.3v-0.1l0.8-0.3v2.5c0,0.2,0.1,0.3,0.4,0.3
			v0.2C103.4,30.8,102.2,30.8,102.2,30.8z M103.1,26.7c0,0.1-0.1,0.3-0.3,0.3c-0.2,0-0.3-0.2-0.3-0.3c0-0.2,0.1-0.3,0.3-0.3
			C103,26.4,103.1,26.5,103.1,26.7z"/>
		<path class="st0" d="M106.6,30.1c-0.3,0.4-0.6,0.7-1.2,0.7c-0.7,0-1.3-0.6-1.3-1.4c0-1,0.7-1.6,1.5-1.6c0.4,0,1,0.2,1,0.6
			c0,0.1-0.1,0.2-0.2,0.2c-0.2,0-0.2-0.2-0.3-0.3c-0.1-0.2-0.2-0.4-0.6-0.4c-0.5,0-0.9,0.5-0.9,1.3s0.4,1.3,1,1.3
			C105.8,30.7,106.1,30.5,106.6,30.1L106.6,30.1z"/>
		<path class="st0" d="M109.2,30.8v-0.2c0.4,0,0.6-0.1,0.6-0.4V27c0-0.2-0.1-0.3-0.6-0.3v-0.1h1.1l1.4,3.8l1.4-3.8h1.1v0.1
			c-0.5,0-0.6,0.1-0.6,0.3v3.3c0,0.3,0.1,0.4,0.6,0.4v0.2h-1.5v-0.2c0.4,0,0.6-0.1,0.6-0.4v-3.5h-0.1l-1.6,4.1h-0.1l-1.5-4.1h-0.1
			v3.5c0,0.3,0.1,0.4,0.6,0.4v0.2h-1.3V30.8z"/>
		<path class="st0" d="M117.5,30.6c-0.1,0.2-0.2,0.3-0.5,0.3s-0.3-0.2-0.3-0.4c-0.3,0.2-0.5,0.4-1,0.4c-0.6,0-0.8-0.3-0.8-0.7
			c0-0.5,0.6-0.9,1.9-1.1v-0.4c0-0.4-0.2-0.6-0.5-0.6c-0.5,0-0.6,0.1-0.7,0.4c0,0.1-0.1,0.3-0.3,0.3c-0.2,0-0.2-0.1-0.2-0.3
			c0-0.3,0.5-0.6,1.3-0.6c0.5,0,0.9,0.3,0.9,0.8v1.7C117.3,30.6,117.3,30.7,117.5,30.6C117.2,30.7,117.3,30.7,117.5,30.6L117.5,30.6
			z M116.7,29.2c-0.8,0.1-1.5,0.4-1.5,1c0,0.3,0.2,0.5,0.6,0.5s0.7-0.1,0.9-0.3V29.2z"/>
		<path class="st0" d="M117.9,30.8v-0.2c0.3,0,0.4-0.1,0.4-0.4v-1.8c0-0.2-0.1-0.3-0.4-0.3V28l0.8-0.2v0.5c0.3-0.2,0.6-0.5,1.1-0.5
			s0.8,0.3,0.8,0.9v1.5c0,0.3,0.1,0.4,0.4,0.4v0.2h-1.2v-0.2c0.3,0,0.4-0.1,0.4-0.4v-1.6c0-0.3-0.1-0.6-0.5-0.6s-0.7,0.2-1,0.4v1.7
			c0,0.3,0.1,0.4,0.4,0.4v0.2h-1.2V30.8z"/>
		<path class="st0" d="M124.2,30.6c-0.1,0.2-0.2,0.3-0.5,0.3s-0.3-0.2-0.3-0.4c-0.3,0.2-0.5,0.4-1,0.4c-0.6,0-0.8-0.3-0.8-0.7
			c0-0.5,0.6-0.9,1.9-1.1v-0.4c0-0.4-0.2-0.6-0.5-0.6c-0.5,0-0.6,0.1-0.7,0.4c0,0.1-0.1,0.3-0.3,0.3c-0.2,0-0.2-0.1-0.2-0.3
			c0-0.3,0.5-0.6,1.3-0.6c0.5,0,0.9,0.3,0.9,0.8v1.7C124,30.6,124,30.7,124.2,30.6C124,30.7,124,30.7,124.2,30.6L124.2,30.6z
			 M123.4,29.2c-0.8,0.1-1.5,0.4-1.5,1c0,0.3,0.2,0.5,0.6,0.5s0.7-0.1,0.9-0.3V29.2z"/>
		<path class="st0" d="M126.9,28.1c0.2-0.2,0.3-0.3,0.5-0.3c0.1,0,0.3,0.1,0.3,0.2s-0.1,0.2-0.2,0.2s-0.2-0.1-0.3-0.1
			c0,0-0.1,0-0.2,0.1c0.1,0.2,0.2,0.4,0.2,0.6s-0.1,0.9-1.2,0.9c-0.1,0-0.2,0-0.4,0c-0.2,0-0.3,0.1-0.3,0.2s0,0.2,0.2,0.2
			c0.3,0.1,0.8,0.1,1.2,0.2c0.4,0.1,0.8,0.2,0.8,0.6c0,0.5-0.6,0.7-1.5,0.7c-1,0-1.4-0.2-1.4-0.6c0-0.3,0.5-0.5,0.9-0.6
			c-0.4-0.1-0.6-0.2-0.6-0.4c0-0.2,0.3-0.3,0.5-0.4c-0.3-0.2-0.5-0.5-0.5-0.8c0-0.6,0.5-0.9,1.1-0.9C126.5,27.9,126.7,28,126.9,28.1
			z M127.2,31.1c0-0.2-0.2-0.4-0.6-0.4c-0.2,0-0.4-0.1-0.8-0.1c-0.6,0.1-0.8,0.3-0.8,0.5c0,0.3,0.4,0.4,1.1,0.4
			C126.7,31.5,127.2,31.3,127.2,31.1z M125.3,28.8c0,0.4,0.2,0.8,0.7,0.8s0.7-0.4,0.7-0.8S126.5,28,126,28S125.3,28.4,125.3,28.8z"
			/>
		<path class="st0" d="M128.7,29.3c0,1,0.5,1.4,1.1,1.4c0.5,0,0.8-0.2,1.1-0.6l0.1,0.1c-0.3,0.4-0.6,0.7-1.3,0.7
			c-0.8,0-1.4-0.6-1.4-1.5c0-0.8,0.5-1.5,1.4-1.5c0.8,0,1.3,0.5,1.3,1.4H128.7z M130.5,29.1c0-0.8-0.4-1.1-0.9-1.1s-0.9,0.5-1,1.1
			H130.5z"/>
		<path class="st0" d="M131.6,30.8v-0.1c0.3,0,0.4-0.1,0.4-0.3v-1.8c0-0.3-0.1-0.3-0.4-0.3v-0.1l0.8-0.2v0.5
			c0.2-0.2,0.6-0.5,1.1-0.5c0.3,0,0.6,0.2,0.7,0.5c0.3-0.3,0.6-0.5,1.1-0.5s0.7,0.3,0.7,0.7v1.8c0,0.2,0.1,0.3,0.4,0.3v0.1h-1.2
			v-0.1c0.3,0,0.4-0.1,0.4-0.3v-1.7c0-0.2-0.2-0.5-0.5-0.5s-0.6,0.2-0.9,0.4v1.7c0,0.2,0.1,0.3,0.4,0.3v0.1h-1.2v-0.1
			c0.3,0,0.4-0.1,0.4-0.3v-1.7c0-0.3-0.2-0.5-0.5-0.5c-0.4,0-0.6,0.2-0.9,0.5v1.7c0,0.2,0.1,0.3,0.4,0.3v0.1H131.6z"/>
		<path class="st0" d="M137.4,29.3c0,1,0.5,1.4,1.1,1.4c0.5,0,0.8-0.2,1.1-0.6l0.1,0.1c-0.3,0.4-0.6,0.7-1.3,0.7
			c-0.8,0-1.4-0.6-1.4-1.5c0-0.8,0.5-1.5,1.4-1.5c0.8,0,1.3,0.5,1.3,1.4H137.4z M139.3,29.1c0-0.8-0.4-1.1-0.9-1.1s-0.9,0.5-1,1.1
			H139.3z"/>
		<path class="st0" d="M140.4,30.8v-0.2c0.3,0,0.4-0.1,0.4-0.4v-1.8c0-0.2-0.1-0.3-0.4-0.3V28l0.8-0.2v0.5c0.3-0.2,0.6-0.5,1.1-0.5
			s0.8,0.3,0.8,0.9v1.5c0,0.3,0.1,0.4,0.4,0.4v0.2h-1.2v-0.2c0.3,0,0.4-0.1,0.4-0.4v-1.6c0-0.3-0.1-0.6-0.5-0.6s-0.7,0.2-1,0.4v1.7
			c0,0.3,0.1,0.4,0.4,0.4v0.2h-1.2V30.8z"/>
		<path class="st0" d="M143.8,28.1V28c0.4,0,0.7-0.3,0.7-1h0.1v1h0.8v0.2h-0.8v2.2c0,0.2,0.1,0.3,0.4,0.3c0.2,0,0.4-0.1,0.5-0.3
			l0.1,0.1c-0.2,0.4-0.4,0.5-0.8,0.5c-0.3,0-0.6-0.2-0.6-0.7v-2.1h-0.4V28.1z"/>
	</g>
	<rect x="195.8" y="4.8" class="st1" width="1.3" height="22.8"/>
	<g>
		<path class="st0" d="M7,21.8l0.4-1.5c0.9,0.5,2.3,1,3.6,1c2.5,0,3.9-1.3,3.9-3.3c0-2.2-1.4-3.1-3.8-3.1c-1,0-2.6,0.4-3.3,0.7
			l0.5-7.9h8.1v1.6H10l-0.3,4.3c0.7-0.2,1.6-0.3,2.2-0.3c3.1,0,5.2,1.5,5.2,4.6c0,2.7-2.1,4.9-5.6,4.9C9.6,22.9,7.9,22.4,7,21.8z"/>
		<path class="st0" d="M19.1,22.7v-1.6h8.2v-4.5h2.1v4.5h8.3v1.6H19.1z M29.5,9.2v0.2c0,3.1,4.4,5.8,7.5,6.4l-1,1.5
			c-3.1-0.8-6.5-3-7.7-5.2c-0.9,2.3-4.4,4.5-7.5,5.2l-1-1.6c3.3-0.5,7.5-3.1,7.5-6.3V9.2h-6.6V7.7h15.6v1.6h-6.8V9.2z"/>
		<path class="st0" d="M45.5,10.5V8.9h11.8v1.6H45.5z M51.5,17.8c-2.7,0-4.8-1.3-4.8-3.2c0-2,2-3.2,4.8-3.2c2.7,0,4.8,1.3,4.8,3.2
			C56.2,16.5,54.2,17.8,51.5,17.8z M61.7,18.8v6.3h-2.1v-4.7H48.3v-1.6C48.3,18.8,61.7,18.8,61.7,18.8z M48.5,7.7V6.1h6v1.6H48.5z
			 M51.5,12.8c-1.4,0-2.7,0.7-2.7,1.7s1.3,1.7,2.7,1.7s2.7-0.7,2.7-1.7C54.1,13.5,52.9,12.8,51.5,12.8z M61.7,13v4.8h-2.1v-12h2.1
			v5.6h3.1V13H61.7z"/>
		<path class="st0" d="M77,20.4c-1.8-1.1-4.3-3.5-5.1-5.8c-0.7,2.3-2.7,4.8-5.1,6.3l-1.3-1.5c3.1-1.8,5.3-5.2,5.3-8.8V7.4h2.2v3.1
			c0,3.6,2.3,6.7,5.2,8.4L77,20.4z M82,15.1v10h-2.1V5.8H82v7.7h3.3v1.6H82z"/>
		<path class="st0" d="M92.8,17.3c-2.2,0.1-4.8,0.2-6.4,0.2l-0.3-1.6c1.2,0,2.9,0,4.3,0v-4.1h2.1v4.1c2.3-0.1,4.9-0.3,6.6-0.5
			l0.3,1.5C97.6,17,94.7,17.3,92.8,17.3z M97.1,14L95,13.7c0.4-1.2,0.5-2.8,0.5-4.9h-8.1V7.2h10.2C97.7,10.4,97.5,12.4,97.1,14z
			 M89.4,24.6V19h2.1v4h11.8v1.6H89.4z M102.5,13.5v6.8h-2.1V5.8h2.1v6.1h3.1v1.6H102.5z"/>
		<path class="st0" d="M120.2,19.9c-2.2,0.3-5.5,0.6-9.8,0.6h-2.6v-7.6h7.7V9.1h-7.8V7.5h9.9v7h-7.7v4.4h0.7c2.9,0,6.9-0.2,9.4-0.6
			L120.2,19.9z M124,5.8v19.4h-2.1V5.8H124z"/>
		<path class="st0" d="M138.3,20.4c-1.8-1.1-4.3-3.5-5.1-5.8c-0.7,2.3-2.7,4.8-5.1,6.3l-1.3-1.5c3.1-1.8,5.3-5.2,5.3-8.8V7.4h2.2
			v3.1c0,3.6,2.3,6.7,5.2,8.4L138.3,20.4z M143.3,15.1v10h-2.1V5.8h2.1v7.7h3.3v1.6H143.3z"/>
		<path class="st0" d="M153.8,7.2c3.6,0,5.3,3,5.3,6.8s-1.7,6.8-5.3,6.8c-3.6,0-5.3-3-5.3-6.9C148.5,10.2,150.2,7.2,153.8,7.2z
			 M153.8,8.9c-2.1,0-3.1,2.2-3.1,5.2s1,5.1,3.1,5.1c2.1,0,3.3-2.1,3.3-5.1S155.9,8.9,153.8,8.9z M162.7,25.1V5.8h2.1v19.4h-2.1
			V25.1z"/>
		<path class="st0" d="M168.1,22.7v-1.6h18.6v1.6H168.1z M172.5,13.3V16h12.1v1.6h-14.2v-10h13.9v1.6h-11.8v2.6H184v1.5
			C184,13.3,172.5,13.3,172.5,13.3z"/>
	</g>
</g>
</svg>
